<?xml version="1.0" encoding="UTF-8" standalone="no"?>
<!DOCTYPE svg PUBLIC "-//W3C//DTD SVG 1.1//EN" "http://www.w3.org/Graphics/SVG/1.1/DTD/svg11.dtd">
<svg width="559.00" height="230.00" viewBox="0.00 0.00 559.00 230.00" xmlns="http://www.w3.org/2000/svg" xmlns:xlink="http://www.w3.org/1999/xlink">
<g stroke-linecap="round" transform="translate(0.00, -15.00)" id="Layer_2_Copy">
<path d="M5.05,22.00 L137.30,22.00" fill="none" stroke="rgb(0, 0, 0)" stroke-width="13.57" stroke-opacity="1.00" stroke-linejoin="round"/>
<path d="M69.67,23.36 L69.67,218.00" fill="none" stroke="rgb(0, 0, 0)" stroke-width="13.57" stroke-opacity="1.00" stroke-linejoin="round"/>
<path d="M154.73,22.00 L154.73,216.65" fill="none" stroke="rgb(0, 0, 0)" stroke-width="13.57" stroke-opacity="1.00" stroke-linejoin="round"/>
<path d="M156.36,216.65 L251.64,216.65" fill="none" stroke="rgb(0, 0, 0)" stroke-width="13.57" stroke-opacity="1.00" stroke-linejoin="round"/>
<path d="M157.58,22.00 L256.93,22.00" fill="none" stroke="rgb(0, 0, 0)" stroke-width="13.57" stroke-opacity="1.00" stroke-linejoin="round"/>
<path d="M157.58,127.43 L252.05,127.43" fill="none" stroke="rgb(0, 0, 0)" stroke-width="13.57" stroke-opacity="1.00" stroke-linejoin="round"/>
<path d="M388.35,22.00 L520.60,22.00" fill="none" stroke="rgb(0, 0, 0)" stroke-width="13.57" stroke-opacity="1.00" stroke-linejoin="round"/>
<path d="M452.97,23.36 L452.97,218.00" fill="none" stroke="rgb(0, 0, 0)" stroke-width="13.57" stroke-opacity="1.00" stroke-linejoin="round"/>
<path d="M0.52,231.99 L6.71,237.65 L551.60,237.65" fill="none" stroke="rgb(0, 0, 0)" stroke-width="13.57" stroke-opacity="1.00" stroke-linejoin="round"/>
<path d="M373.87,62.36 C373.99,55.66 374.23,42.89 373.53,39.68 C373.06,37.62 371.38,33.84 370.25,32.31 C368.06,29.44 362.63,26.29 359.81,25.43 C354.34,23.82 336.45,23.80 328.03,23.79 C319.86,23.80 303.87,23.83 296.05,23.87 C291.31,23.90 285.42,25.55 282.65,27.70 C279.86,29.96 275.99,36.29 274.84,39.64 C272.85,45.70 270.93,60.37 270.89,69.82 C270.88,75.33 271.39,84.58 272.09,89.01 C272.81,93.38 275.09,101.02 276.65,104.29 C278.23,107.54 282.24,112.93 284.66,115.08 C287.28,117.35 293.28,120.61 296.75,121.65 C300.24,122.66 308.11,123.47 312.50,123.28 C316.09,123.10 327.43,121.37 330.96,121.19 C335.31,120.98 343.06,121.75 346.46,122.72 C349.83,123.73 355.55,126.89 358.03,129.11 C360.32,131.23 363.98,136.47 365.37,139.63 C366.74,142.83 368.57,150.29 369.04,154.56 C369.83,162.11 368.62,182.57 367.24,189.93 C366.54,193.61 364.88,199.53 363.62,202.79 C362.28,206.15 357.73,212.61 354.52,214.77 C351.29,216.85 345.46,217.80 339.63,217.68 C331.84,217.55 315.57,217.23 307.10,217.06 C305.02,217.02 294.68,216.70 291.75,215.56 C288.54,214.25 283.89,209.45 282.36,206.15 C279.49,199.70 278.66,188.18 278.44,172.77 C278.39,169.68 278.32,165.42 278.30,164.25" fill="none" stroke="rgb(0, 0, 0)" stroke-width="13.57" stroke-opacity="1.00" stroke-linejoin="miter"/>
</g>
</svg>
